<svg xmlns="http://www.w3.org/2000/svg" height="40px" viewBox="0 -960 960 960" width="40px" fill="#FF2C00"><path d="M880-80.67 720.67-240h-414q-27.5 0-47.09-19.58Q240-279.17 240-306.67v-66.66h440q27.5 0 47.08-19.59 19.59-19.58 19.59-47.08v-280h66.66q27.5 0 47.09 19.58Q880-680.83 880-653.33v572.66ZM146.67-441l65.66-65.67h401v-306.66H146.67V-441ZM80-280v-533.33q0-27.5 19.58-47.09Q119.17-880 146.67-880h466.66q27.5 0 47.09 19.58Q680-840.83 680-813.33v306.66q0 27.5-19.58 47.09Q640.83-440 613.33-440H240L80-280Zm66.67-226.67v-306.66 306.66Z"/></svg>